<?xml version="1.0" encoding="utf-8"?>
<svg
        xmlns="http://www.w3.org/2000/svg"
        xmlns:xlink="http://www.w3.org/1999/xlink">
    <symbol viewBox="0 0 24 24" id="account_circle"
            xmlns="http://www.w3.org/2000/svg">
        <path d="M12 2C6.48 2 2 6.48 2 12s4.48 10 10 10 10-4.48 10-10S17.52 2 12 2zm0 3c1.66 0 3 1.34 3 3s-1.34 3-3 3-3-1.34-3-3 1.34-3 3-3zm0 14.2a7.2 7.2 0 0 1-6-3.22c.03-1.99 4-3.08 6-3.08 1.99 0 5.97 1.09 6 3.08a7.2 7.2 0 0 1-6 3.22z"/>
        <path d="M0 0h24v24H0z" fill="none"/>
    </symbol>
    <symbol viewBox="0 0 24 24" id="check_box_outline_blank"
            xmlns="http://www.w3.org/2000/svg">
        <path fill="none" d="M0 0h24v24H0V0z"/>
        <path d="M19 5v14H5V5h14m0-2H5c-1.1 0-2 .9-2 2v14c0 1.1.9 2 2 2h14c1.1 0 2-.9 2-2V5c0-1.1-.9-2-2-2z"/>
    </symbol>
    <symbol viewBox="0 0 24 24" id="chevron_left"
            xmlns="http://www.w3.org/2000/svg">
        <path d="M15.41 7.41L14 6l-6 6 6 6 1.41-1.41L10.83 12z"/>
        <path d="M0 0h24v24H0z" fill="none"/>
    </symbol>
    <symbol viewBox="0 0 24 24" id="chevron_right"
            xmlns="http://www.w3.org/2000/svg">
        <path d="M10 6L8.59 7.41 13.17 12l-4.58 4.59L10 18l6-6z"/>
        <path d="M0 0h24v24H0z" fill="none"/>
    </symbol>
    <symbol viewBox="0 0 24 24" id="chevron_up"
            xmlns="http://www.w3.org/2000/svg">
        <path d="M12 8l-6 6 1.41 1.41L12 10.83l4.59 4.58L18 14z"/>
        <path d="M0 0h24v24H0z" fill="none"/>
    </symbol>
    <symbol viewBox="0 0 24 24" id="chevron_down"
            xmlns="http://www.w3.org/2000/svg">
        <path d="M16.59 8.59L12 13.17 7.41 8.59 6 10l6 6 6-6z"/>
        <path d="M0 0h24v24H0z" fill="none"/>
    </symbol>
    <symbol viewBox="0 0 24 24" id="favorite"
            xmlns="http://www.w3.org/2000/svg">
        <path d="M0 0h24v24H0z" fill="none"/>
        <path d="M12 21.35l-1.45-1.32C5.4 15.36 2 12.28 2 8.5 2 5.42 4.42 3 7.5 3c1.74 0 3.41.81 4.5 2.09C13.09 3.81 14.76 3 16.5 3 19.58 3 22 5.42 22 8.5c0 3.78-3.4 6.86-8.55 11.54L12 21.35z"/>
    </symbol>
    <symbol viewBox="0 0 24 24" id="menu"
            xmlns="http://www.w3.org/2000/svg">
        <path d="M0 0h24v24H0z" fill="none"/>
        <path d="M3 18h18v-2H3v2zm0-5h18v-2H3v2zm0-7v2h18V6H3z"/>
    </symbol>
    <symbol viewBox="0 0 24 24" id="outline-account_circle"
            xmlns="http://www.w3.org/2000/svg">
        <path fill="none" d="M0 0h24v24H0V0z"/>
        <path d="M12 2C6.48 2 2 6.48 2 12s4.48 10 10 10 10-4.48 10-10S17.52 2 12 2zM7.07 18.28c.43-.9 3.05-1.78 4.93-1.78s4.51.88 4.93 1.78C15.57 19.36 13.86 20 12 20s-3.57-.64-4.93-1.72zm11.29-1.45c-1.43-1.74-4.9-2.33-6.36-2.33s-4.93.59-6.36 2.33A7.95 7.95 0 0 1 4 12c0-4.41 3.59-8 8-8s8 3.59 8 8c0 1.82-.62 3.49-1.64 4.83zM12 6c-1.94 0-3.5 1.56-3.5 3.5S10.06 13 12 13s3.5-1.56 3.5-3.5S13.94 6 12 6zm0 5c-.83 0-1.5-.67-1.5-1.5S11.17 8 12 8s1.5.67 1.5 1.5S12.83 11 12 11z"/>
    </symbol>

    <symbol viewBox="0 0 24 24" id="outline-check_box"
            xmlns="http://www.w3.org/2000/svg">
        <path fill="none" d="M0 0h24v24H0V0z"/>
        <path d="M19 3H5c-1.1 0-2 .9-2 2v14c0 1.1.9 2 2 2h14c1.1 0 2-.9 2-2V5c0-1.1-.9-2-2-2zm0 16H5V5h14v14zM17.99 9l-1.41-1.42-6.59 6.59-2.58-2.57-1.42 1.41 4 3.99z"/>
    </symbol>
    <symbol viewBox="0 0 24 24" id="check_box"
            xmlns="http://www.w3.org/2000/svg">
        <path d="M0 0h24v24H0z" fill="none"/>
        <path d="M19 3H5c-1.11 0-2 .9-2 2v14c0 1.1.89 2 2 2h14c1.11 0 2-.9 2-2V5c0-1.1-.89-2-2-2zm-9 14l-5-5 1.41-1.41L10 14.17l7.59-7.59L19 8l-9 9z"/>
    </symbol>
    <symbol viewBox="0 0 24 24" id="outline-favorite"
            xmlns="http://www.w3.org/2000/svg">
        <path d="M0 0h24v24H0z" fill="none"/>
        <path d="M16.5 3c-1.74 0-3.41.81-4.5 2.09C10.91 3.81 9.24 3 7.5 3 4.42 3 2 5.42 2 8.5c0 3.78 3.4 6.86 8.55 11.54L12 21.35l1.45-1.32C18.6 15.36 22 12.28 22 8.5 22 5.42 19.58 3 16.5 3zm-4.4 15.55l-.1.1-.1-.1C7.14 14.24 4 11.39 4 8.5 4 6.5 5.5 5 7.5 5c1.54 0 3.04.99 3.57 2.36h1.87C13.46 5.99 14.96 5 16.5 5c2 0 3.5 1.5 3.5 3.5 0 2.89-3.14 5.74-7.9 10.05z"/>
    </symbol>
    <symbol viewBox="0 0 24 24" id="outline-shopping_cart"
            xmlns="http://www.w3.org/2000/svg">
        <path fill="none" d="M0 0h24v24H0V0z"/>
        <path d="M15.55 13c.75 0 1.41-.41 1.75-1.03l3.58-6.49A.996.996 0 0 0 20.01 4H5.21l-.94-2H1v2h2l3.6 7.59-1.35 2.44C4.52 15.37 5.48 17 7 17h12v-2H7l1.1-2h7.45zM6.16 6h12.15l-2.76 5H8.53L6.16 6zM7 18c-1.1 0-1.99.9-1.99 2S5.9 22 7 22s2-.9 2-2-.9-2-2-2zm10 0c-1.1 0-1.99.9-1.99 2s.89 2 1.99 2 2-.9 2-2-.9-2-2-2z"/>
    </symbol>
    <symbol viewBox="0 0 24 24" id="outline-star"
            xmlns="http://www.w3.org/2000/svg">
        <path d="M22 9.24l-7.19-.62L12 2 9.19 8.63 2 9.24l5.46 4.73L5.82 21 12 17.27 18.18 21l-1.63-7.03L22 9.24zM12 15.4l-3.76 2.27 1-4.28-3.32-2.88 4.38-.38L12 6.1l1.71 4.04 4.38.38-3.32 2.88 1 4.28L12 15.4z"/>
        <path d="M0 0h24v24H0z" fill="none"/>
    </symbol>
    <symbol viewBox="0 0 24 24" id="outline-toggle_off"
            xmlns="http://www.w3.org/2000/svg">
        <path fill="none" d="M0 0h24v24H0V0z"/>
        <path d="M17 6H7c-3.31 0-6 2.69-6 6s2.69 6 6 6h10c3.31 0 6-2.69 6-6s-2.69-6-6-6zm0 10H7c-2.21 0-4-1.79-4-4s1.79-4 4-4h10c2.21 0 4 1.79 4 4s-1.79 4-4 4zM7 9c-1.66 0-3 1.34-3 3s1.34 3 3 3 3-1.34 3-3-1.34-3-3-3z"/>
    </symbol>
    <symbol viewBox="0 0 24 24" id="outline-toggle_on"
            xmlns="http://www.w3.org/2000/svg">
        <path fill="none" d="M0 0h24v24H0z"/>
        <path d="M17 6H7c-3.31 0-6 2.69-6 6s2.69 6 6 6h10c3.31 0 6-2.69 6-6s-2.69-6-6-6zm0 10H7c-2.21 0-4-1.79-4-4s1.79-4 4-4h10c2.21 0 4 1.79 4 4s-1.79 4-4 4zm0-7c-1.66 0-3 1.34-3 3s1.34 3 3 3 3-1.34 3-3-1.34-3-3-3z"/>
    </symbol>
    <symbol viewBox="0 0 24 24" id="place"
            xmlns="http://www.w3.org/2000/svg">
        <path d="M12 2C8.13 2 5 5.13 5 9c0 5.25 7 13 7 13s7-7.75 7-13c0-3.87-3.13-7-7-7zm0 9.5a2.5 2.5 0 0 1 0-5 2.5 2.5 0 0 1 0 5z"/>
        <path d="M0 0h24v24H0z" fill="none"/>
    </symbol>
    <symbol viewBox="0 0 24 24" id="radio_button_checked"
            xmlns="http://www.w3.org/2000/svg">
        <path d="M12 7c-2.76 0-5 2.24-5 5s2.24 5 5 5 5-2.24 5-5-2.24-5-5-5zm0-5C6.48 2 2 6.48 2 12s4.48 10 10 10 10-4.48 10-10S17.52 2 12 2zm0 18c-4.42 0-8-3.58-8-8s3.58-8 8-8 8 3.58 8 8-3.58 8-8 8z"/>
        <path d="M0 0h24v24H0z" fill="none"/>
    </symbol>
    <symbol viewBox="0 0 24 24" id="radio_button_unchecked"
            xmlns="http://www.w3.org/2000/svg">
        <path d="M12 2C6.48 2 2 6.48 2 12s4.48 10 10 10 10-4.48 10-10S17.52 2 12 2zm0 18c-4.42 0-8-3.58-8-8s3.58-8 8-8 8 3.58 8 8-3.58 8-8 8z"/>
        <path d="M0 0h24v24H0z" fill="none"/>
    </symbol>
    <symbol viewBox="0 0 24 24" id="shopping_cart"
            xmlns="http://www.w3.org/2000/svg">
        <path d="M7 18c-1.1 0-1.99.9-1.99 2S5.9 22 7 22s2-.9 2-2-.9-2-2-2zM1 2v2h2l3.6 7.59-1.35 2.45c-.16.28-.25.61-.25.96 0 1.1.9 2 2 2h12v-2H7.42c-.14 0-.25-.11-.25-.25l.03-.12.9-1.63h7.45c.75 0 1.41-.41 1.75-1.03l3.58-6.49A1.003 1.003 0 0 0 20 4H5.21l-.94-2H1zm16 16c-1.1 0-1.99.9-1.99 2s.89 2 1.99 2 2-.9 2-2-.9-2-2-2z"/>
        <path d="M0 0h24v24H0z" fill="none"/>
    </symbol>
    <symbol viewBox="0 0 24 24" id="smartphone"
            xmlns="http://www.w3.org/2000/svg">
        <path d="M0 0h24v24H0z" fill="none"/>
        <path d="M17 1.01L7 1c-1.1 0-2 .9-2 2v18c0 1.1.9 2 2 2h10c1.1 0 2-.9 2-2V3c0-1.1-.9-1.99-2-1.99zM17 19H7V5h10v14z"/>
    </symbol>
    <symbol viewBox="0 0 24 24" id="star"
            xmlns="http://www.w3.org/2000/svg">
        <path d="M0 0h24v24H0z" fill="none"/>
        <path d="M12 17.27L18.18 21l-1.64-7.03L22 9.24l-7.19-.61L12 2 9.19 8.63 2 9.24l5.46 4.73L5.82 21z"/>
        <path d="M0 0h24v24H0z" fill="none"/>
    </symbol>
    <symbol viewBox="0 0 24 24" id="star_half"
            xmlns="http://www.w3.org/2000/svg">
        <defs>
            <path id="ua" d="M0 0h24v24H0V0z"/>
        </defs>
        <clipPath id="ub">
            <use xlink:href="#ua" overflow="visible"/>
        </clipPath>
        <path clip-path="url(#ub)"
              d="M22 9.24l-7.19-.62L12 2 9.19 8.63 2 9.24l5.46 4.73L5.82 21 12 17.27 18.18 21l-1.63-7.03L22 9.24zM12 15.4V6.1l1.71 4.04 4.38.38-3.32 2.88 1 4.28L12 15.4z"/>
    </symbol>
    <symbol viewBox="0 0 24 24" id="supervised_user_circle"
            xmlns="http://www.w3.org/2000/svg">
        <path d="M11.99 2c-5.52 0-10 4.48-10 10s4.48 10 10 10 10-4.48 10-10-4.48-10-10-10zm3.61 6.34c1.07 0 1.93.86 1.93 1.93 0 1.07-.86 1.93-1.93 1.93-1.07 0-1.93-.86-1.93-1.93-.01-1.07.86-1.93 1.93-1.93zm-6-1.58c1.3 0 2.36 1.06 2.36 2.36 0 1.3-1.06 2.36-2.36 2.36s-2.36-1.06-2.36-2.36c0-1.31 1.05-2.36 2.36-2.36zm0 9.13v3.75c-2.4-.75-4.3-2.6-5.14-4.96 1.05-1.12 3.67-1.69 5.14-1.69.53 0 1.2.08 1.9.22-1.64.87-1.9 2.02-1.9 2.68zM11.99 20c-.27 0-.53-.01-.79-.04v-4.07c0-1.42 2.94-2.13 4.4-2.13 1.07 0 2.92.39 3.84 1.15-1.17 2.97-4.06 5.09-7.45 5.09z"/>
        <path fill="none" d="M0 0h24v24H0z"/>
    </symbol>
    <symbol viewBox="0 0 24 24" id="view_headline"
            xmlns="http://www.w3.org/2000/svg">
        <path d="M4 15h16v-2H4v2zm0 4h16v-2H4v2zm0-8h16V9H4v2zm0-6v2h16V5H4z"/>
        <path fill="none" d="M0 0h24v24H0V0z"/>
    </symbol>
    <symbol viewBox="0 0 24 24" id="compare"
            xmlns="http://www.w3.org/2000/svg">
        <path d="M5.41976 16.4659C6.85706 16.4659 8.23549 15.8698 9.25182 14.8088C10.2681 13.7478 10.8391 12.3087 10.8391 10.8082C10.8391 10.5939 10.7575 10.3883 10.6124 10.2367C10.4672 10.0852 10.2702 10 10.0649 10H0.774597C0.569268 10 0.372348 10.0852 0.227159 10.2367C0.0819693 10.3883 0.000403404 10.5939 0.000403404 10.8082C0.000403404 12.3087 0.571369 13.7478 1.5877 14.8088C2.60402 15.8698 3.98246 16.4659 5.41976 16.4659ZM9.2133 11.6165C9.03562 12.53 8.56087 13.3513 7.86951 13.9413C7.17814 14.5312 6.31268 14.8535 5.41976 14.8535C4.52684 14.8535 3.66137 14.5312 2.97001 13.9413C2.27864 13.3513 1.8039 12.53 1.62621 11.6165H9.2133Z"/>
        <path d="M9.2133 11.6165C9.03562 12.53 8.56087 13.3513 7.86951 13.9413C7.17814 14.5312 6.31268 14.8535 5.41976 14.8535C4.52684 14.8535 3.66137 14.5312 2.97001 13.9413C2.27864 13.3513 1.8039 12.53 1.62621 11.6165H9.2133Z"/>
        <path d="M18.5806 20.9994C20.0179 20.9994 21.3964 20.4033 22.4127 19.3423C23.429 18.2812 24 16.8422 24 15.3417C24 15.1273 23.9184 14.9217 23.7732 14.7702C23.6281 14.6186 23.4311 14.5334 23.2258 14.5334H13.9355C13.7302 14.5334 13.5332 14.6186 13.388 14.7702C13.2429 14.9217 13.1613 15.1273 13.1613 15.3417C13.1613 16.8422 13.7323 18.2812 14.7486 19.3423C15.7649 20.4033 17.1433 20.9994 18.5806 20.9994ZM22.3742 16.1499C22.1965 17.0635 21.7218 17.8848 21.0304 18.4747C20.339 19.0647 19.4736 19.3869 18.5806 19.3869C17.6877 19.3869 16.8223 19.0647 16.1309 18.4747C15.4395 17.8848 14.9648 17.0635 14.7871 16.1499H22.3742Z"/>
        <path d="M22.3742 16.1499C22.1965 17.0635 21.7218 17.8848 21.0304 18.4747C20.339 19.0647 19.4736 19.3869 18.5806 19.3869C17.6877 19.3869 16.8223 19.0647 16.1309 18.4747C15.4395 17.8848 14.9648 17.0635 14.7871 16.1499H22.3742Z"/>
        <path d="M0.154839 10.2927L4.8 3.37473C4.89045 3.22783 5.01933 3.11575 5.16901 3.05383C5.31869 2.99191 5.48184 2.98318 5.63613 3.02883L18.7974 7.35255C18.8323 7.36975 18.866 7.38999 18.8981 7.41308H18.9445C19.0197 7.45796 19.0877 7.5164 19.1458 7.58603L19.2 7.69845L23.8452 14.6164C23.9684 14.7999 24.0213 15.0305 23.9922 15.2575C23.9632 15.4846 23.8546 15.6894 23.6903 15.827C23.5261 15.9647 23.3196 16.0237 23.1163 15.9913C22.9131 15.9589 22.7296 15.8376 22.6064 15.6541L18.5806 9.66142L14.5548 15.6541C14.4316 15.8376 14.2482 15.9589 14.045 15.9913C13.8417 16.0237 13.6352 15.9647 13.471 15.827C13.3067 15.6894 13.1981 15.4846 13.1691 15.2575C13.14 15.0305 13.1929 14.7999 13.3161 14.6164L17.2955 8.6929L7.44 5.45876L10.6839 10.2927C10.8071 10.4762 10.86 10.7068 10.8309 10.9338C10.8019 11.1609 10.6933 11.3657 10.529 11.5033C10.3648 11.6409 10.1583 11.7 9.95503 11.6676C9.75176 11.6351 9.56836 11.5139 9.44516 11.3304L5.41935 5.3377L1.39355 11.3304C1.27035 11.5139 1.08695 11.6351 0.883682 11.6676C0.783035 11.6836 0.680542 11.6774 0.582054 11.6492C0.483566 11.621 0.391012 11.5715 0.309677 11.5033C0.228342 11.4352 0.159821 11.3498 0.108021 11.2521C0.056221 11.1544 0.0221577 11.0462 0.00778008 10.9338C-0.00659752 10.8214 -0.00101089 10.7069 0.0242214 10.5969C0.0494537 10.4869 0.0938377 10.3835 0.154839 10.2927Z"/>
    </symbol>
    <symbol viewBox="0 0 24 24" id="outline-compare"
            xmlns="http://www.w3.org/2000/svg">
        <path d="M5.41976 16.4659C6.85706 16.4659 8.23549 15.8698 9.25182 14.8088C10.2681 13.7478 10.8391 12.3087 10.8391 10.8082C10.8391 10.5939 10.7575 10.3883 10.6124 10.2367C10.4672 10.0852 10.2702 10 10.0649 10H0.774597C0.569268 10 0.372348 10.0852 0.227159 10.2367C0.0819693 10.3883 0.000403404 10.5939 0.000403404 10.8082C0.000403404 12.3087 0.571369 13.7478 1.5877 14.8088C2.60402 15.8698 3.98246 16.4659 5.41976 16.4659ZM9.2133 11.6165C9.03562 12.53 8.56087 13.3513 7.86951 13.9413C7.17814 14.5312 6.31268 14.8535 5.41976 14.8535C4.52684 14.8535 3.66137 14.5312 2.97001 13.9413C2.27864 13.3513 1.8039 12.53 1.62621 11.6165H9.2133Z"/>
        <path d="M18.5806 20.9994C20.0179 20.9994 21.3964 20.4033 22.4127 19.3423C23.429 18.2812 24 16.8422 24 15.3417C24 15.1273 23.9184 14.9217 23.7732 14.7702C23.6281 14.6186 23.4311 14.5334 23.2258 14.5334H13.9355C13.7302 14.5334 13.5332 14.6186 13.388 14.7702C13.2429 14.9217 13.1613 15.1273 13.1613 15.3417C13.1613 16.8422 13.7323 18.2812 14.7486 19.3423C15.7649 20.4033 17.1433 20.9994 18.5806 20.9994ZM22.3742 16.1499C22.1965 17.0635 21.7218 17.8848 21.0304 18.4747C20.339 19.0647 19.4736 19.3869 18.5806 19.3869C17.6877 19.3869 16.8223 19.0647 16.1309 18.4747C15.4395 17.8848 14.9648 17.0635 14.7871 16.1499H22.3742Z"/>
        <path d="M0.154839 10.2927L4.8 3.37473C4.89045 3.22783 5.01933 3.11575 5.16901 3.05383C5.31869 2.99191 5.48184 2.98318 5.63613 3.02883L18.7974 7.35255C18.8323 7.36975 18.866 7.38999 18.8981 7.41308H18.9445C19.0197 7.45796 19.0877 7.5164 19.1458 7.58603L19.2 7.69845L23.8452 14.6164C23.9684 14.7999 24.0213 15.0305 23.9922 15.2575C23.9632 15.4846 23.8546 15.6894 23.6903 15.827C23.5261 15.9647 23.3196 16.0237 23.1163 15.9913C22.9131 15.9589 22.7296 15.8376 22.6064 15.6541L18.5806 9.66142L14.5548 15.6541C14.4316 15.8376 14.2482 15.9589 14.045 15.9913C13.8417 16.0237 13.6352 15.9647 13.471 15.827C13.3067 15.6894 13.1981 15.4846 13.1691 15.2575C13.14 15.0305 13.1929 14.7999 13.3161 14.6164L17.2955 8.6929L7.44 5.45876L10.6839 10.2927C10.8071 10.4762 10.86 10.7068 10.8309 10.9338C10.8019 11.1609 10.6933 11.3657 10.529 11.5033C10.3648 11.6409 10.1583 11.7 9.95503 11.6676C9.75176 11.6351 9.56836 11.5139 9.44516 11.3304L5.41935 5.3377L1.39355 11.3304C1.27035 11.5139 1.08695 11.6351 0.883682 11.6676C0.783035 11.6836 0.680542 11.6774 0.582054 11.6492C0.483566 11.621 0.391012 11.5715 0.309677 11.5033C0.228342 11.4352 0.159821 11.3498 0.108021 11.2521C0.056221 11.1544 0.0221577 11.0462 0.00778008 10.9338C-0.00659752 10.8214 -0.00101089 10.7069 0.0242214 10.5969C0.0494537 10.4869 0.0938377 10.3835 0.154839 10.2927Z"/>
    </symbol>
    <symbol viewBox="0 0 24 24" id="search"
            xmlns="http://www.w3.org/2000/svg">
        <path d="M15.5 14h-.79l-.28-.27C15.41 12.59 16 11.11 16 9.5 16 5.91 13.09 3 9.5 3S3 5.91 3 9.5 5.91 16 9.5 16c1.61 0 3.09-.59 4.23-1.57l.27.28v.79l5 4.99L20.49 19l-4.99-5zm-6 0C7.01 14 5 11.99 5 9.5S7.01 5 9.5 5 14 7.01 14 9.5 11.99 14 9.5 14z"/>
        <path d="M0 0h24v24H0z" fill="none"/>
    </symbol>
    <symbol viewBox="0 0 24 24" id="calendar"
            xmlns="http://www.w3.org/2000/svg">
        <path d="M20 3h-1V1h-2v2H7V1H5v2H4c-1.1 0-2 .9-2 2v16c0 1.1.9 2 2 2h16c1.1 0 2-.9 2-2V5c0-1.1-.9-2-2-2zm0 18H4V8h16v13z"/>
        <path fill="none" d="M0 0h24v24H0z"/>
    </symbol>
    <symbol viewBox="0 0 24 24" id="comment"
            xmlns="http://www.w3.org/2000/svg">
        <path fill="none" d="M0 0h24v24H0V0z"/>
        <path d="M21.99 4c0-1.1-.89-2-1.99-2H4c-1.1 0-2 .9-2 2v12c0 1.1.9 2 2 2h14l4 4-.01-18zM20 4v13.17L18.83 16H4V4h16zM6 12h12v2H6zm0-3h12v2H6zm0-3h12v2H6z"/>
    </symbol>
    <symbol viewBox="0 0 24 24" id="outline-email"
            xmlns="http://www.w3.org/2000/svg">
        <path fill="none" d="M0 0h24v24H0V0z"/>
        <path d="M22 6c0-1.1-.9-2-2-2H4c-1.1 0-2 .9-2 2v12c0 1.1.9 2 2 2h16c1.1 0 2-.9 2-2V6zm-2 0l-8 5-8-5h16zm0 12H4V8l8 5 8-5v10z"/>
    </symbol>
    <symbol viewBox="0 0 24 24" id="email"
            xmlns="http://www.w3.org/2000/svg">
        <path d="M20 4H4c-1.1 0-1.99.9-1.99 2L2 18c0 1.1.9 2 2 2h16c1.1 0 2-.9 2-2V6c0-1.1-.9-2-2-2zm0 4l-8 5-8-5V6l8 5 8-5v2z"/>
        <path d="M0 0h24v24H0z" fill="none"/>
    </symbol>
    <symbol viewBox="0 0 43 43" id="vk"
            xmlns="http://www.w3.org/2000/svg">
        <path d="M32.1822 17.6607C32.1822 17.6607 32.0259 17.2143 31.055 17.3371L27.8407 17.3594C27.5951 17.3259 27.4166 17.4263 27.4166 17.4263C27.4166 17.4263 27.2268 17.5268 27.1376 17.7723C26.613 19.1228 25.9434 20.2835 25.9434 20.2835C24.5148 22.7165 23.9344 22.8504 23.7001 22.6942C23.1532 22.3482 23.2983 21.2879 23.2983 20.529C23.2983 18.1629 23.6554 17.1808 22.5951 16.9241C22.2492 16.846 21.9925 16.7902 21.0884 16.779C19.9389 16.7679 18.9679 16.779 18.421 17.0469C18.0527 17.2254 17.7737 17.6272 17.9411 17.6496C18.1532 17.683 18.6331 17.7835 18.8898 18.1295C18.8898 18.1295 19.1688 18.5871 19.2134 19.5915C19.3362 22.3705 18.767 22.7165 18.767 22.7165C18.3318 22.9509 17.5728 22.5603 16.4568 20.2612C16.4568 20.2612 15.8094 19.1228 15.3072 17.8728C15.2179 17.6384 15.0393 17.5156 15.0393 17.5156C15.0393 17.5156 14.8384 17.3594 14.5483 17.3147L11.4902 17.3371C11.0215 17.3371 10.8541 17.5491 10.8541 17.5491C10.8541 17.5491 10.6867 17.7277 10.8429 18.096C13.2313 23.7098 15.9545 26.5223 15.9545 26.5223C15.9545 26.5223 18.4434 29.1228 21.267 28.9442H22.5505C22.9411 28.9107 23.142 28.6987 23.142 28.6987C23.142 28.6987 23.3206 28.4978 23.3094 28.1295C23.2871 26.4107 24.0907 26.154 24.0907 26.154C24.8719 25.9085 25.8764 27.817 26.9478 28.5536C26.9478 28.5536 27.7626 29.1116 28.3764 28.9888L31.2335 28.9442C32.7402 28.933 32.0259 27.683 32.0259 27.683C31.9701 27.5826 31.613 26.8125 29.8943 25.2165C28.1085 23.5536 28.3429 23.8214 30.5081 20.942C31.8251 19.1897 32.3496 18.1183 32.1822 17.6607Z"/>
    </symbol>
    <symbol viewBox="0 0 43 43" id="fb"
            xmlns="http://www.w3.org/2000/svg">
        <path d="M26.4902 11.9911C26.1889 11.9464 25.1509 11.8571 23.9456 11.8571C21.4233 11.8571 19.6934 13.3973 19.6934 16.221V18.654H16.8474V21.9576H19.6934V30.4286H23.1085V21.9576H25.9434L26.3786 18.654H23.1085V16.5446C23.1085 15.596 23.3652 14.9375 24.738 14.9375H26.4902V11.9911Z"/>
    </symbol>
    <symbol viewBox="0 0 43 43" id="ok"
            xmlns="http://www.w3.org/2000/svg">
        <path d="M21.5042 21.9799C24.2944 21.9799 26.5712 19.7143 26.5712 16.9241C26.5712 14.1228 24.2944 11.8571 21.5042 11.8571C18.714 11.8571 16.4372 14.1228 16.4372 16.9241C16.4372 19.7143 18.714 21.9799 21.5042 21.9799ZM21.5042 14.4241C22.877 14.4241 23.993 15.5402 23.993 16.9241C23.993 18.2969 22.877 19.4129 21.5042 19.4129C20.1314 19.4129 19.0153 18.2969 19.0153 16.9241C19.0153 15.5402 20.1314 14.4241 21.5042 14.4241ZM27.3412 22.5938C27.0511 22.0246 26.2587 21.5446 25.2095 22.3705C25.2095 22.3705 23.7921 23.4978 21.5042 23.4978C19.2162 23.4978 17.7988 22.3705 17.7988 22.3705C16.7497 21.5446 15.9573 22.0246 15.6671 22.5938C15.1761 23.5982 15.7341 24.0781 17.0064 24.904C18.089 25.596 19.5845 25.8527 20.5444 25.9531L19.7408 26.7567C18.6024 27.8839 17.5198 28.9777 16.7609 29.7366C16.3033 30.1942 16.3033 30.9308 16.7609 31.3772L16.8948 31.5223C17.3412 31.9688 18.0778 31.9688 18.5354 31.5223L21.5153 28.5312C22.6537 29.6696 23.7475 30.7634 24.4953 31.5223C24.9528 31.9688 25.6895 31.9688 26.147 31.5223L26.281 31.3772C26.7274 30.9308 26.7274 30.1942 26.281 29.7366L23.3011 26.7567L22.4863 25.9531C23.4573 25.8527 24.9305 25.5848 26.002 24.904C27.2743 24.0781 27.8323 23.5982 27.3412 22.5938Z"/>
    </symbol>
    <symbol viewBox="0 0 43 43" id="in"
            xmlns="http://www.w3.org/2000/svg">
        <path d="M24.3544 21.8571C24.3544 23.4308 23.0709 24.7143 21.4972 24.7143C19.9235 24.7143 18.6401 23.4308 18.6401 21.8571C18.6401 20.2835 19.9235 19 21.4972 19C23.0709 19 24.3544 20.2835 24.3544 21.8571ZM25.8945 21.8571C25.8945 19.4241 23.9302 17.4598 21.4972 17.4598C19.0642 17.4598 17.0999 19.4241 17.0999 21.8571C17.0999 24.2902 19.0642 26.2545 21.4972 26.2545C23.9302 26.2545 25.8945 24.2902 25.8945 21.8571ZM27.0999 17.2812C27.0999 16.7121 26.6423 16.2545 26.0731 16.2545C25.5039 16.2545 25.0463 16.7121 25.0463 17.2812C25.0463 17.8504 25.5039 18.308 26.0731 18.308C26.6423 18.308 27.0999 17.8504 27.0999 17.2812ZM21.4972 14.8259C22.7472 14.8259 25.4258 14.7254 26.553 15.1719C26.9436 15.3281 27.2338 15.5179 27.5352 15.8192C27.8365 16.1205 28.0262 16.4107 28.1825 16.8013C28.6289 17.9286 28.5285 20.6071 28.5285 21.8571C28.5285 23.1071 28.6289 25.7857 28.1825 26.9129C28.0262 27.3036 27.8365 27.5938 27.5352 27.8951C27.2338 28.1964 26.9436 28.3862 26.553 28.5424C25.4258 28.9888 22.7472 28.8884 21.4972 28.8884C20.2472 28.8884 17.5686 28.9888 16.4414 28.5424C16.0508 28.3862 15.7606 28.1964 15.4593 27.8951C15.1579 27.5938 14.9682 27.3036 14.8119 26.9129C14.3655 25.7857 14.466 23.1071 14.466 21.8571C14.466 20.6071 14.3655 17.9286 14.8119 16.8013C14.9682 16.4107 15.1579 16.1205 15.4593 15.8192C15.7606 15.5179 16.0508 15.3281 16.4414 15.1719C17.5686 14.7254 20.2472 14.8259 21.4972 14.8259ZM30.0686 21.8571C30.0686 20.6741 30.0798 19.5022 30.0128 18.3192C29.9459 16.9464 29.6334 15.7299 28.6289 14.7254C27.6244 13.721 26.4079 13.4085 25.0352 13.3415C23.8521 13.2746 22.6802 13.2857 21.4972 13.2857C20.3142 13.2857 19.1423 13.2746 17.9593 13.3415C16.5865 13.4085 15.37 13.721 14.3655 14.7254C13.361 15.7299 13.0485 16.9464 12.9816 18.3192C12.9146 19.5022 12.9258 20.6741 12.9258 21.8571C12.9258 23.0402 12.9146 24.2121 12.9816 25.3951C13.0485 26.7679 13.361 27.9844 14.3655 28.9888C15.37 29.9933 16.5865 30.3058 17.9593 30.3728C19.1423 30.4397 20.3142 30.4286 21.4972 30.4286C22.6802 30.4286 23.8521 30.4397 25.0352 30.3728C26.4079 30.3058 27.6244 29.9933 28.6289 28.9888C29.6334 27.9844 29.9459 26.7679 30.0128 25.3951C30.0798 24.2121 30.0686 23.0402 30.0686 21.8571Z"/>
    </symbol>
    <symbol viewBox="0 0 43 43" id="yt"
            xmlns="http://www.w3.org/2000/svg">
        <path d="M19.4353 24.4464V18.8326L24.8371 21.6562L19.4353 24.4464ZM21.5 14.8259C17.2924 14.8259 14.5022 15.0268 14.5022 15.0268C14.1116 15.0714 13.2522 15.0714 12.4933 15.875C12.4933 15.875 11.8795 16.4777 11.7009 17.8616C11.4888 19.4799 11.5 21.0982 11.5 21.0982V22.6161C11.5 22.6161 11.4888 24.2344 11.7009 25.8527C11.8795 27.2254 12.4933 27.8393 12.4933 27.8393C13.2522 28.6317 14.2567 28.6094 14.7031 28.6875C14.7031 28.6875 16.2991 28.8438 21.5 28.8884C25.7076 28.8884 28.4978 28.6763 28.4978 28.6763C28.8884 28.6317 29.7478 28.6317 30.5067 27.8393C30.5067 27.8393 31.1205 27.2254 31.2991 25.8527C31.5112 24.2344 31.5 22.6161 31.5 22.6161V21.0982C31.5 21.0982 31.5112 19.4799 31.2991 17.8616C31.1205 16.4777 30.5067 15.875 30.5067 15.875C29.7478 15.0714 28.8884 15.0714 28.4978 15.0268C28.4978 15.0268 25.7076 14.8259 21.5 14.8259Z"/>
    </symbol>
    <symbol viewBox="0 0 16 16" id="share"
            xmlns="http://www.w3.org/2000/svg">
        <path d="M12 10.72C11.4933 10.72 11.04 10.92 10.6933 11.2334L5.94 8.46671C5.97333 8.31337 6 8.16004 6 8.00004C6 7.84004 5.97333 7.68671 5.94 7.53337L10.64 4.79337C11 5.12671 11.4733 5.33337 12 5.33337C13.1067 5.33337 14 4.44004 14 3.33337C14 2.22671 13.1067 1.33337 12 1.33337C10.8933 1.33337 10 2.22671 10 3.33337C10 3.49337 10.0267 3.64671 10.06 3.80004L5.36 6.54004C5 6.20671 4.52667 6.00004 4 6.00004C2.89333 6.00004 2 6.89337 2 8.00004C2 9.10671 2.89333 10 4 10C4.52667 10 5 9.79337 5.36 9.46004L10.1067 12.2334C10.0733 12.3734 10.0533 12.52 10.0533 12.6667C10.0533 13.74 10.9267 14.6134 12 14.6134C13.0733 14.6134 13.9467 13.74 13.9467 12.6667C13.9467 11.5934 13.0733 10.72 12 10.72ZM12 2.66671C12.3667 2.66671 12.6667 2.96671 12.6667 3.33337C12.6667 3.70004 12.3667 4.00004 12 4.00004C11.6333 4.00004 11.3333 3.70004 11.3333 3.33337C11.3333 2.96671 11.6333 2.66671 12 2.66671ZM4 8.66671C3.63333 8.66671 3.33333 8.36671 3.33333 8.00004C3.33333 7.63337 3.63333 7.33337 4 7.33337C4.36667 7.33337 4.66667 7.63337 4.66667 8.00004C4.66667 8.36671 4.36667 8.66671 4 8.66671ZM12 13.3467C11.6333 13.3467 11.3333 13.0467 11.3333 12.68C11.3333 12.3134 11.6333 12.0134 12 12.0134C12.3667 12.0134 12.6667 12.3134 12.6667 12.68C12.6667 13.0467 12.3667 13.3467 12 13.3467Z"/>
    </symbol>
    <symbol viewBox="0 0 24 24" id="check"
            xmlns="http://www.w3.org/2000/svg">
        <path d="M0 0h24v24H0z" fill="none"/>
        <path d="M9 16.17L4.83 12l-1.42 1.41L9 19 21 7l-1.41-1.41z"/>
    </symbol>
    <symbol viewBox="0 0 24 24" id="help"
            xmlns="http://www.w3.org/2000/svg">
        <path d="M0 0h24v24H0z" fill="none"/>
        <path d="M12 2C6.48 2 2 6.48 2 12s4.48 10 10 10 10-4.48 10-10S17.52 2 12 2zm1 17h-2v-2h2v2zm2.07-7.75l-.9.92C13.45 12.9 13 13.5 13 15h-2v-.5c0-1.1.45-2.1 1.17-2.83l1.24-1.26c.37-.36.59-.86.59-1.41 0-1.1-.9-2-2-2s-2 .9-2 2H8c0-2.21 1.79-4 4-4s4 1.79 4 4c0 .88-.36 1.68-.93 2.25z"/>
    </symbol>
    <symbol viewBox="0 0 24 24" id="clear"
            xmlns="http://www.w3.org/2000/svg">
        <path d="M19 6.41L17.59 5 12 10.59 6.41 5 5 6.41 10.59 12 5 17.59 6.41 19 12 13.41 17.59 19 19 17.59 13.41 12z"/>
        <path d="M0 0h24v24H0z" fill="none"/>
    </symbol>
    <symbol viewBox="0 0 24 24" id="add"
            xmlns="http://www.w3.org/2000/svg">
        <path d="M19 13h-6v6h-2v-6H5v-2h6V5h2v6h6v2z"/>
        <path d="M0 0h24v24H0z" fill="none"/>
    </symbol>
    <symbol viewBox="0 0 24 24" id="remove"
            xmlns="http://www.w3.org/2000/svg">
        <path d="M19 13H5v-2h14v2z"/>
        <path d="M0 0h24v24H0z" fill="none"/>
    </symbol>

    <symbol viewBox="0 0 24 24" id="outline-check-circle"
            xmlns="http://www.w3.org/2000/svg">
        <path fill="none" d="M0 0h24v24H0V0zm0 0h24v24H0V0z"/>
        <path d="M16.59 7.58L10 14.17l-3.59-3.58L5 12l5 5 8-8zM12 2C6.48 2 2 6.48 2 12s4.48 10 10 10 10-4.48 10-10S17.52 2 12 2zm0 18c-4.42 0-8-3.58-8-8s3.58-8 8-8 8 3.58 8 8-3.58 8-8 8z"/>
    </symbol>
    <symbol viewBox="0 0 24 24" id="check-circle"
            xmlns="http://www.w3.org/2000/svg">
        <path d="M0 0h24v24H0z" fill="none"/><path d="M12 2C6.48 2 2 6.48 2 12s4.48 10 10 10 10-4.48 10-10S17.52 2 12 2zm-2 15l-5-5 1.41-1.41L10 14.17l7.59-7.59L19 8l-9 9z"/>
    </symbol>

    <symbol viewBox="0 0 24 24" id="arrow-down"
            xmlns="http://www.w3.org/2000/svg">
        <path d="M7 10l5 5 5-5z"/>
        <path d="M0 0h24v24H0z" fill="none"/>
    </symbol>
    <symbol viewBox="0 0 24 24" id="delete-forever"
            xmlns="http://www.w3.org/2000/svg">
        <path fill="none" d="M0 0h24v24H0V0z"/>
        <path d="M14.12 10.47L12 12.59l-2.13-2.12-1.41 1.41L10.59 14l-2.12 2.12 1.41 1.41L12 15.41l2.12 2.12 1.41-1.41L13.41 14l2.12-2.12zM15.5 4l-1-1h-5l-1 1H5v2h14V4zM6 19c0 1.1.9 2 2 2h8c1.1 0 2-.9 2-2V7H6v12zM8 9h8v10H8V9z"/>
    </symbol>
    <symbol viewBox="0 0 24 24" id="add_shopping_cart"
            xmlns="http://www.w3.org/2000/svg">
        <path d="M0 0h24v24H0zm18.31 6l-2.76 5z" fill="none"/>
        <path d="M11 9h2V6h3V4h-3V1h-2v3H8v2h3v3zm-4 9c-1.1 0-1.99.9-1.99 2S5.9 22 7 22s2-.9 2-2-.9-2-2-2zm10 0c-1.1 0-1.99.9-1.99 2s.89 2 1.99 2 2-.9 2-2-.9-2-2-2zm-9.83-3.25l.03-.12.9-1.63h7.45c.75 0 1.41-.41 1.75-1.03l3.86-7.01L19.42 4h-.01l-1.1 2-2.76 5H8.53l-.13-.27L6.16 6l-.95-2-.94-2H1v2h2l3.6 7.59-1.35 2.45c-.16.28-.25.61-.25.96 0 1.1.9 2 2 2h12v-2H7.42c-.13 0-.25-.11-.25-.25z"/>
    </symbol>
    <symbol viewBox="0 0 24 24" id="tune"
            xmlns="http://www.w3.org/2000/svg">
        <path d="M0 0h24v24H0z" fill="none"/>
        <path d="M3 17v2h6v-2H3zM3 5v2h10V5H3zm10 16v-2h8v-2h-8v-2h-2v6h2zM7 9v2H3v2h4v2h2V9H7zm14 4v-2H11v2h10zm-6-4h2V7h4V5h-4V3h-2v6z"/>
    </symbol>
    <symbol viewBox="0 0 24 24" id="cancel"
            xmlns="http://www.w3.org/2000/svg">
        <path d="M12 2C6.47 2 2 6.47 2 12s4.47 10 10 10 10-4.47 10-10S17.53 2 12 2zm5 13.59L15.59 17 12 13.41 8.41 17 7 15.59 10.59 12 7 8.41 8.41 7 12 10.59 15.59 7 17 8.41 13.41 12 17 15.59z"/>
        <path d="M0 0h24v24H0z" fill="none"/>
    </symbol>
    <symbol viewBox="0 0 24 24" id="save_alt"
            xmlns="http://www.w3.org/2000/svg">
        <path d="M19 12v7H5v-7H3v7c0 1.1.9 2 2 2h14c1.1 0 2-.9 2-2v-7h-2zm-6 .67l2.59-2.58L17 11.5l-5 5-5-5 1.41-1.41L11 12.67V3h2z"/>
        <path fill="none" d="M0 0h24v24H0z"/>
    </symbol>
    <symbol viewBox="0 0 24 24" id="outline-print"
            xmlns="http://www.w3.org/2000/svg">
        <path fill="none" d="M0 0h24v24H0V0z"/>
        <path d="M19 8h-1V3H6v5H5c-1.66 0-3 1.34-3 3v6h4v4h12v-4h4v-6c0-1.66-1.34-3-3-3zM8 5h8v3H8V5zm8 12v2H8v-4h8v2zm2-2v-2H6v2H4v-4c0-.55.45-1 1-1h14c.55 0 1 .45 1 1v4h-2z"/>
        <circle cx="18" cy="11.5" r="1"/>
    </symbol>
    <symbol viewBox="0 0 24 24" id="description"
            xmlns="http://www.w3.org/2000/svg">
        <path d="M0 0h24v24H0z" fill="none"/>
        <path d="M14 2H6c-1.1 0-1.99.9-1.99 2L4 20c0 1.1.89 2 1.99 2H18c1.1 0 2-.9 2-2V8l-6-6zm2 16H8v-2h8v2zm0-4H8v-2h8v2zm-3-5V3.5L18.5 9H13z"/>
    </symbol>
    <symbol viewBox="0 0 24 24" id="more-horiz"
            xmlns="http://www.w3.org/2000/svg">
        <path d="M0 0h24v24H0z" fill="none"/>
        <path d="M6 10c-1.1 0-2 .9-2 2s.9 2 2 2 2-.9 2-2-.9-2-2-2zm12 0c-1.1 0-2 .9-2 2s.9 2 2 2 2-.9 2-2-.9-2-2-2zm-6 0c-1.1 0-2 .9-2 2s.9 2 2 2 2-.9 2-2-.9-2-2-2z"/>
    </symbol>
    <symbol viewBox="0 0 24 24" id="outline-visibility"
            xmlns="http://www.w3.org/2000/svg">
        <path d="M12 6c3.79 0 7.17 2.13 8.82 5.5C19.17 14.87 15.79 17 12 17s-7.17-2.13-8.82-5.5C4.83 8.13 8.21 6 12 6m0-2C7 4 2.73 7.11 1 11.5 2.73 15.89 7 19 12 19s9.27-3.11 11-7.5C21.27 7.11 17 4 12 4zm0 5c1.38 0 2.5 1.12 2.5 2.5S13.38 14 12 14s-2.5-1.12-2.5-2.5S10.62 9 12 9m0-2c-2.48 0-4.5 2.02-4.5 4.5S9.52 16 12 16s4.5-2.02 4.5-4.5S14.48 7 12 7z"/>
    </symbol>
    <symbol viewBox="0 0 24 24" id="home"
            xmlns="http://www.w3.org/2000/svg">
        <path d="M10 20v-6h4v6h5v-8h3L12 3 2 12h3v8z"/>
        <path d="M0 0h24v24H0z" fill="none"/>
    </symbol>
    <symbol viewBox="0 0 24 24" id="outline-save"
            xmlns="http://www.w3.org/2000/svg">
        <path d="M9 14.25H3.75V3.75L9 3.75V2.25L3.75 2.25C2.925 2.25 2.25 2.925 2.25 3.75V14.25C2.25 15.075 2.925 15.75 3.75 15.75H9V14.25ZM8.4975 9.75L10.4325 11.6925L9.375 12.75L5.625 9L9.375 5.25L10.4325 6.3075L8.4975 8.25H15.75V9.75H8.4975Z"/>
    </symbol>
    <symbol viewBox="0 0 24 24" id="skype"
            xmlns="http://www.w3.org/2000/svg">
        <path fill-rule="evenodd" clip-rule="evenodd"
              d="M15.7519 9.07328C15.7519 9.55839 15.6985 10.0299 15.5979 10.4862C15.8551 10.9971 16 11.5732 16 12.1817C16 14.291 14.2665 16 12.1274 16C11.465 16 10.842 15.7266 10.2964 15.4379C9.90043 15.5101 9.49178 15.5481 9.07394 15.5481C5.38604 15.5481 2.39683 12.7101 2.39683 9.07328C2.39683 8.62007 2.44321 8.17739 2.53203 7.75003C2.19469 7.18266 2 6.52303 2 5.81876C2 3.70947 3.73349 2 5.87298 2C6.62988 2 7.33608 2.21522 7.9328 2.58616C8.30382 2.52317 8.68537 2.48992 9.07433 2.48992C12.7627 2.48992 15.7519 5.43778 15.7519 9.07328ZM10.6142 12.6828C11.0676 12.4723 11.412 12.1796 11.6474 11.8072C11.8819 11.4344 12.0001 11.0139 12 10.5467C12 10.156 11.9317 9.82639 11.7962 9.55765C11.6608 9.28802 11.4715 9.06468 11.2298 8.8885C10.9876 8.71369 10.6936 8.56375 10.3488 8.4405C10.0036 8.31768 9.61812 8.20469 9.19307 8.10279C8.8527 8.01468 8.60858 7.94841 8.46117 7.90257C8.31377 7.8559 8.16755 7.79271 8.02414 7.71173C7.87914 7.63119 7.76566 7.5355 7.68377 7.42207C7.60189 7.30951 7.55993 7.17517 7.55993 7.02122C7.55993 6.77164 7.68136 6.55719 7.92347 6.38013C8.16557 6.20175 8.48439 6.11363 8.87868 6.11363C9.30457 6.11363 9.61299 6.19549 9.80555 6.35921C9.99811 6.52249 10.1623 6.75028 10.3001 7.04214C10.406 7.24637 10.5047 7.39318 10.5958 7.48306C10.6869 7.57244 10.8199 7.61784 10.9953 7.61784C11.1874 7.61784 11.3481 7.54268 11.4767 7.39318C11.6053 7.24412 11.6692 7.07503 11.6692 6.88863C11.6692 6.68577 11.6177 6.47489 11.5146 6.26132C11.412 6.04643 11.2486 5.84181 11.0253 5.64647C10.8024 5.45113 10.5223 5.29455 10.1839 5.17618C9.84553 5.05918 9.44443 5 8.98102 5C8.40136 5 7.89635 5.08855 7.4673 5.2665C7.03745 5.44448 6.71026 5.69852 6.48373 6.02952C6.25681 6.36009 6.14376 6.73782 6.14376 7.16402C6.14376 7.61027 6.25084 7.98399 6.46578 8.28562C6.67993 8.58594 6.97075 8.82306 7.3363 8.99792C7.70142 9.17142 8.15566 9.32448 8.69779 9.45394C9.10367 9.5487 9.42727 9.63858 9.66899 9.72357C9.91109 9.80762 10.1084 9.93 10.2615 10.0901C10.4141 10.249 10.4908 10.4585 10.4908 10.7148C10.4908 11.0383 10.3486 11.3092 10.0657 11.525C9.78207 11.7417 9.41376 11.8494 8.9607 11.8494C8.63153 11.8494 8.36507 11.7951 8.16211 11.6888C7.95998 11.5816 7.80257 11.4445 7.6915 11.2795C7.57924 11.1144 7.47577 10.9085 7.37948 10.6615C7.3012 10.4538 7.2057 10.2976 7.09385 10.1921C6.98278 10.0858 6.84577 10.0338 6.68437 10.0338C6.48579 10.0338 6.32158 10.1009 6.19296 10.2375C6.06433 10.3723 6 10.5352 6 10.7247C6 11.0526 6.10743 11.3898 6.32158 11.736C6.53652 12.0821 6.81575 12.3598 7.15853 12.5671C7.64314 12.8558 8.2576 13 9.00265 13C9.62387 13 10.1608 12.895 10.6142 12.6828Z"/>
    </symbol>
    <symbol viewBox="0 0 24 24" id="assignment"
            xmlns="http://www.w3.org/2000/svg">
        <path d="M0 0h24v24H0z" fill="none"/>
        <path d="M19 3h-4.18C14.4 1.84 13.3 1 12 1c-1.3 0-2.4.84-2.82 2H5c-1.1 0-2 .9-2 2v14c0 1.1.9 2 2 2h14c1.1 0 2-.9 2-2V5c0-1.1-.9-2-2-2zm-7 0c.55 0 1 .45 1 1s-.45 1-1 1-1-.45-1-1 .45-1 1-1zm2 14H7v-2h7v2zm3-4H7v-2h10v2zm0-4H7V7h10v2z"/>
    </symbol>
    <symbol viewBox="0 0 24 24" id="user-circle"
            xmlns="http://www.w3.org/2000/svg">
        <path d="M11.99 2c-5.52 0-10 4.48-10 10s4.48 10 10 10 10-4.48 10-10-4.48-10-10-10zm3.61 6.34c1.07 0 1.93.86 1.93 1.93 0 1.07-.86 1.93-1.93 1.93-1.07 0-1.93-.86-1.93-1.93-.01-1.07.86-1.93 1.93-1.93zm-6-1.58c1.3 0 2.36 1.06 2.36 2.36 0 1.3-1.06 2.36-2.36 2.36s-2.36-1.06-2.36-2.36c0-1.31 1.05-2.36 2.36-2.36zm0 9.13v3.75c-2.4-.75-4.3-2.6-5.14-4.96 1.05-1.12 3.67-1.69 5.14-1.69.53 0 1.2.08 1.9.22-1.64.87-1.9 2.02-1.9 2.68zM11.99 20c-.27 0-.53-.01-.79-.04v-4.07c0-1.42 2.94-2.13 4.4-2.13 1.07 0 2.92.39 3.84 1.15-1.17 2.97-4.06 5.09-7.45 5.09z"/>
        <path fill="none" d="M0 0h24v24H0z"/>
    </symbol>
    <symbol viewBox="0 0 24 24" id="description"
            xmlns="http://www.w3.org/2000/svg">
        <path d="M0 0h24v24H0z" fill="none"/>
        <path d="M14 2H6c-1.1 0-1.99.9-1.99 2L4 20c0 1.1.89 2 1.99 2H18c1.1 0 2-.9 2-2V8l-6-6zm2 16H8v-2h8v2zm0-4H8v-2h8v2zm-3-5V3.5L18.5 9H13z"/>
    </symbol>
    <symbol viewBox="0 0 24 24" id="lock"
            xmlns="http://www.w3.org/2000/svg">
        <path d="M18 8h-1V6c0-2.76-2.24-5-5-5S7 3.24 7 6v2H6c-1.1 0-2 .9-2 2v10c0 1.1.9 2 2 2h12c1.1 0 2-.9 2-2V10c0-1.1-.9-2-2-2zm-6 9c-1.1 0-2-.9-2-2s.9-2 2-2 2 .9 2 2-.9 2-2 2zm3.1-9H8.9V6c0-1.71 1.39-3.1 3.1-3.1 1.71 0 3.1 1.39 3.1 3.1v2z"/>
    </symbol>
    <symbol viewBox="0 0 24 24" id="directions_car"
            xmlns="http://www.w3.org/2000/svg">
        <path d="M18.92 6.01C18.72 5.42 18.16 5 17.5 5h-11c-.66 0-1.21.42-1.42 1.01L3 12v8c0 .55.45 1 1 1h1c.55 0 1-.45 1-1v-1h12v1c0 .55.45 1 1 1h1c.55 0 1-.45 1-1v-8l-2.08-5.99zM6.5 16c-.83 0-1.5-.67-1.5-1.5S5.67 13 6.5 13s1.5.67 1.5 1.5S7.33 16 6.5 16zm11 0c-.83 0-1.5-.67-1.5-1.5s.67-1.5 1.5-1.5 1.5.67 1.5 1.5-.67 1.5-1.5 1.5zM5 11l1.5-4.5h11L19 11H5z"/>
        <path d="M0 0h24v24H0z" fill="none"/>
    </symbol>
    <symbol viewBox="0 0 24 24" id="directions_bus"
            xmlns="http://www.w3.org/2000/svg">
        <path d="M0 0h24v24H0z" fill="none"/>
        <path d="M4 16c0 .88.39 1.67 1 2.22V20c0 .55.45 1 1 1h1c.55 0 1-.45 1-1v-1h8v1c0 .55.45 1 1 1h1c.55 0 1-.45 1-1v-1.78c.61-.55 1-1.34 1-2.22V6c0-3.5-3.58-4-8-4s-8 .5-8 4v10zm3.5 1c-.83 0-1.5-.67-1.5-1.5S6.67 14 7.5 14s1.5.67 1.5 1.5S8.33 17 7.5 17zm9 0c-.83 0-1.5-.67-1.5-1.5s.67-1.5 1.5-1.5 1.5.67 1.5 1.5-.67 1.5-1.5 1.5zm1.5-6H6V6h12v5z"/>
    </symbol>
    <symbol viewBox="0 0 24 24" id="outline-more_horiz"
            xmlns="http://www.w3.org/2000/svg">
        <path fill="none" d="M0 0h24v24H0V0z"/>
        <path d="M6 10c-1.1 0-2 .9-2 2s.9 2 2 2 2-.9 2-2-.9-2-2-2zm12 0c-1.1 0-2 .9-2 2s.9 2 2 2 2-.9 2-2-.9-2-2-2zm-6 0c-1.1 0-2 .9-2 2s.9 2 2 2 2-.9 2-2-.9-2-2-2z"/>
    </symbol>
    <symbol viewBox="0 0 24 24" id="coming-soon"
            fill="none" xmlns="http://www.w3.org/2000/svg">
        <path d="M12.5556 6.44444H10.8889V13.1111L16.1667 16.2778L17 14.9111L12.5556 12.2778V6.44444ZM12 2C6.47778 2 2 6.47778 2 12C2 17.5222 6.46667 22 12 22C17.5222 22 22 17.5222 22 12C22 6.47778 17.5222 2 12 2ZM12 19.7778C7.7 19.7778 4.22222 16.3 4.22222 12C4.22222 7.7 7.7 4.22222 12 4.22222C16.3 4.22222 19.7778 7.7 19.7778 12C19.7778 16.3 16.3 19.7778 12 19.7778Z"
              fill="#F2A309"/>
    </symbol>
    <symbol viewBox="0 0 24 24" id="list"
            xmlns="http://www.w3.org/2000/svg">
        <path d="M4 10.5c-.83 0-1.5.67-1.5 1.5s.67 1.5 1.5 1.5 1.5-.67 1.5-1.5-.67-1.5-1.5-1.5zm0-6c-.83 0-1.5.67-1.5 1.5S3.17 7.5 4 7.5 5.5 6.83 5.5 6 4.83 4.5 4 4.5zm0 12c-.83 0-1.5.68-1.5 1.5s.68 1.5 1.5 1.5 1.5-.68 1.5-1.5-.67-1.5-1.5-1.5zM7 19h14v-2H7v2zm0-6h14v-2H7v2zm0-8v2h14V5H7z"/>
        <path d="M0 0h24v24H0V0z" fill="none"/>
    </symbol>
    <symbol viewBox="0 0 24 24" id="module"
            xmlns="http://www.w3.org/2000/svg">
        <path d="M4 11h5V5H4v6zm0 7h5v-6H4v6zm6 0h5v-6h-5v6zm6 0h5v-6h-5v6zm-6-7h5V5h-5v6zm6-6v6h5V5h-5z"/>
        <path d="M0 0h24v24H0z" fill="none"/>
    </symbol>
    <symbol viewBox="0 0 24 24" id="access_time"
            xmlns="http://www.w3.org/2000/svg">
        <path d="M11.99 2C6.47 2 2 6.48 2 12s4.47 10 9.99 10C17.52 22 22 17.52 22 12S17.52 2 11.99 2zM12 20c-4.42 0-8-3.58-8-8s3.58-8 8-8 8 3.58 8 8-3.58 8-8 8z"/>
        <path d="M0 0h24v24H0z" fill="none"/>
        <path d="M12.5 7H11v6l5.25 3.15.75-1.23-4.5-2.67z"/>
    </symbol>
    <symbol viewBox="0 0 24 24" id="outline-phone"
            xmlns="http://www.w3.org/2000/svg">
        <path d="M0 0h24v24H0V0z" fill="none"/>
        <path d="M6.54 5c.06.89.21 1.76.45 2.59l-1.2 1.2c-.41-1.2-.67-2.47-.76-3.79h1.51m9.86 12.02c.85.24 1.72.39 2.6.45v1.49c-1.32-.09-2.59-.35-3.8-.75l1.2-1.19M7.5 3H4c-.55 0-1 .45-1 1 0 9.39 7.61 17 17 17 .55 0 1-.45 1-1v-3.49c0-.55-.45-1-1-1-1.24 0-2.45-.2-3.57-.57-.1-.04-.21-.05-.31-.05-.26 0-.51.1-.71.29l-2.2 2.2c-2.83-1.45-5.15-3.76-6.59-6.59l2.2-2.2c.28-.28.36-.67.25-1.02C8.7 6.45 8.5 5.25 8.5 4c0-.55-.45-1-1-1z"/>
    </symbol>
    <symbol viewBox="0 0 24 24" id="phone"
            xmlns="http://www.w3.org/2000/svg">
        <path d="M0 0h24v24H0z" fill="none"/>
        <path d="M6.62 10.79c1.44 2.83 3.76 5.14 6.59 6.59l2.2-2.2c.27-.27.67-.36 1.02-.24 1.12.37 2.33.57 3.57.57.55 0 1 .45 1 1V20c0 .55-.45 1-1 1-9.39 0-17-7.61-17-17 0-.55.45-1 1-1h3.5c.55 0 1 .45 1 1 0 1.25.2 2.45.57 3.57.11.35.03.74-.25 1.02l-2.2 2.2z"/>
    </symbol>
    <symbol viewBox="0 0 24 24" id="info"
            xmlns="http://www.w3.org/2000/svg">
        <path d="M0 0h24v24H0z" fill="none"/>
        <path d="M12 2C6.48 2 2 6.48 2 12s4.48 10 10 10 10-4.48 10-10S17.52 2 12 2zm1 15h-2v-6h2v6zm0-8h-2V7h2v2z"/>
    </symbol>
    <symbol viewBox="0 0 24 24" id="work_outline"
            xmlns="http://www.w3.org/2000/svg">
        <path d="M0 0h24v24H0z" fill="none"/><path d="M14 6V4h-4v2h4zM4 8v11h16V8H4zm16-2c1.11 0 2 .89 2 2v11c0 1.11-.89 2-2 2H4c-1.11 0-2-.89-2-2l.01-11c0-1.11.88-2 1.99-2h4V4c0-1.11.89-2 2-2h4c1.11 0 2 .89 2 2v2h4z" fill-rule="evenodd"/>
    </symbol>
    <symbol viewBox="0 0 24 24" id="attach_money"
            xmlns="http://www.w3.org/2000/svg">
        <path d="M0 0h24v24H0z" fill="none"/><path d="M11.8 10.9c-2.27-.59-3-1.2-3-2.15 0-1.09 1.01-1.85 2.7-1.85 1.78 0 2.44.85 2.5 2.1h2.21c-.07-1.72-1.12-3.3-3.21-3.81V3h-3v2.16c-1.94.42-3.5 1.68-3.5 3.61 0 2.31 1.91 3.46 4.7 4.13 2.5.6 3 1.48 3 2.41 0 .69-.49 1.79-2.7 1.79-2.06 0-2.87-.92-2.98-2.1h-2.2c.12 2.19 1.76 3.42 3.68 3.83V21h3v-2.15c1.95-.37 3.5-1.5 3.5-3.55 0-2.84-2.43-3.81-4.7-4.4z"/>
    </symbol>


</svg>

